<?xml version="1.0" standalone="no"?><!DOCTYPE svg PUBLIC "-//W3C//DTD SVG 1.1//EN" "http://www.w3.org/Graphics/SVG/1.1/DTD/svg11.dtd"><svg t="1556210743081" class="icon" style="" viewBox="0 0 1024 1024" version="1.1" xmlns="http://www.w3.org/2000/svg" p-id="5850" xmlns:xlink="http://www.w3.org/1999/xlink" width="200" height="200"><defs><style type="text/css"></style></defs><path d="M816.355556 614.4 816.355556 284.444444c0-25.133511-20.3776-45.511111-45.511111-45.511111l-500.622222 0c-25.133511 0-45.511111 20.3776-45.511111 45.511111l0 329.955556-102.4 125.155556 0 11.377778c0 18.852978 15.280356 34.133333 34.133333 34.133333l728.177778 0c18.852978 0 34.133333-15.280356 34.133333-34.133333l0-11.377778L816.355556 614.4zM440.888889 716.8l22.755556-34.133333 113.777778 0 22.755556 34.133333L440.888889 716.8zM782.222222 568.888889c0 6.280533-5.097244 11.377778-11.377778 11.377778l-500.622222 0c-6.280533 0-11.377778-5.097244-11.377778-11.377778L258.844444 284.444444c0-6.280533 5.097244-11.377778 11.377778-11.377778l500.622222 0c6.280533 0 11.377778 5.097244 11.377778 11.377778L782.222222 568.888889zM691.2 381.155556c0 15.712711-12.731733 28.444444-28.444444 28.444444-2.104889 0-4.141511-0.261689-6.109867-0.694044L596.195556 492.020622c2.468978 4.209778 3.982222 9.056711 3.982222 14.290489 0 15.712711-12.731733 28.444444-28.444444 28.444444s-28.444444-12.731733-28.444444-28.444444c0-4.596622 1.194667-8.874667 3.128889-12.720356l-70.303289-84.8896C473.929956 409.235911 471.688533 409.6 469.333333 409.6c-1.820444 0-3.584-0.2048-5.313422-0.534756l-61.166933 83.103289c2.412089 4.187022 3.902578 8.965689 3.902578 14.142578 0 15.712711-12.731733 28.444444-28.444444 28.444444s-28.444444-12.731733-28.444444-28.444444c0-15.712711 12.731733-28.444444 28.444444-28.444444 2.161778 0 4.243911 0.284444 6.269156 0.739556l60.689067-82.443378c-2.730667-4.369067-4.369067-9.489067-4.369067-15.007289 0-15.712711 12.731733-28.444444 28.444444-28.444444s28.444444 12.731733 28.444444 28.444444c0 4.960711-1.388089 9.568711-3.618133 13.630578l69.802667 84.297956C566.442667 478.367289 569.014044 477.866667 571.733333 477.866667c2.104889 0 4.141511 0.261689 6.109867 0.694044l60.450133-83.114667c-2.468978-4.209778-3.982222-9.056711-3.982222-14.290489 0-15.712711 12.731733-28.444444 28.444444-28.444444S691.2 365.442844 691.2 381.155556z" p-id="5851"></path></svg>